<?xml version="1.0" standalone="no"?>
<!DOCTYPE svg PUBLIC "-//W3C//DTD SVG 20010904//EN"
 "http://www.w3.org/TR/2001/REC-SVG-20010904/DTD/svg10.dtd">
<svg version="1.0" xmlns="http://www.w3.org/2000/svg"
 width="300.000000pt" height="246.000000pt" viewBox="0 0 300.000000 246.000000"
 preserveAspectRatio="xMidYMid meet">

<g transform="translate(0.000000,246.000000) scale(0.100000,-0.100000)"
fill="#000000" stroke="none">
<path d="M2575 1429 c-33 -19 -45 -41 -45 -81 0 -151 147 -189 188 -50 17 56
15 77 -11 107 -26 31 -98 44 -132 24z m79 -45 c36 -14 9 -124 -30 -124 -16 0
-44 56 -44 88 0 35 34 51 74 36z"/>
<path d="M1530 1320 l0 -110 25 0 c24 0 25 2 25 65 0 69 10 80 36 40 l16 -24
24 27 23 27 1 -67 c0 -66 1 -68 25 -68 l25 0 0 110 c0 110 0 110 -24 110 -16
0 -34 -11 -49 -31 l-24 -31 -26 31 c-16 20 -35 31 -51 31 l-26 0 0 -110z"/>
<path d="M1780 1320 l0 -110 70 0 c39 0 70 4 70 9 0 5 3 16 6 25 5 12 -4 15
-43 18 -59 4 -68 30 -13 38 26 4 36 10 38 27 3 19 -2 22 -35 25 -56 4 -52 32
5 36 34 3 43 7 40 20 -3 14 -17 18 -71 20 l-67 3 0 -111z"/>
<path d="M1956 1414 c-3 -9 -6 -18 -6 -20 0 -2 25 -4 55 -4 67 0 83 -20 43
-55 l-25 -22 23 -44 c13 -24 31 -54 41 -67 17 -21 20 -21 40 -7 l22 16 -31 44
-32 45 21 22 c12 13 23 32 25 43 2 14 12 21 35 23 l32 3 3 -88 c3 -86 3 -88
28 -88 25 0 25 2 28 88 l3 87 28 0 c24 0 28 3 24 20 -5 18 -14 20 -84 20 -64
0 -79 -3 -79 -15 0 -8 -4 -15 -9 -15 -5 0 -14 7 -21 15 -18 22 -155 21 -164
-1z"/>
<path d="M2340 1320 l0 -110 25 0 c23 0 24 4 27 63 l3 62 33 -62 c29 -56 35
-63 63 -63 17 0 29 3 27 8 -2 4 -16 32 -32 63 l-28 57 26 46 26 47 -32 -3
c-24 -2 -36 -11 -51 -38 -31 -57 -37 -58 -37 -7 0 43 -2 47 -25 47 l-25 0 0
-110z"/>
<path d="M245 1390 c-5 -16 -3 -26 9 -32 51 -28 65 -69 67 -188 0 -46 3 -59 9
-45 14 34 11 163 -5 202 -8 19 -15 39 -15 43 0 4 24 8 53 8 101 3 162 11 165
22 3 9 -9 10 -49 4 -65 -10 -96 -10 -170 1 -54 7 -57 6 -64 -15z"/>
<path d="M597 1393 c-16 -19 -16 -21 2 -37 11 -10 22 -28 24 -40 2 -14 6 -8
12 21 l7 42 72 1 c126 2 135 3 140 17 5 11 -2 12 -32 6 -46 -10 -114 -10 -167
1 -33 6 -43 5 -58 -11z"/>
<path d="M1160 1401 c131 -12 219 -74 221 -157 0 -35 2 -37 11 -17 15 31 3 68
-36 111 -45 49 -113 72 -202 70 l-69 -1 75 -6z"/>
<path d="M1960 1290 c0 -79 0 -80 25 -80 25 0 25 1 25 80 0 79 0 80 -25 80
-25 0 -25 -1 -25 -80z"/>
<path d="M484 1335 c-6 -14 49 -169 67 -189 4 -4 12 1 18 13 7 12 8 21 3 21
-5 0 -24 38 -42 85 -18 47 -35 85 -37 85 -2 0 -6 -7 -9 -15z"/>
<path d="M789 1318 c0 -7 -2 -78 -4 -158 -3 -115 -1 -150 11 -167 l14 -23 -79
0 c-48 0 -81 4 -83 11 -2 6 -12 1 -22 -10 l-19 -21 117 0 c96 0 118 3 123 16
3 9 -3 23 -16 35 -20 19 -21 30 -21 174 0 97 -4 155 -10 155 -5 0 -10 -6 -11
-12z"/>
<path d="M1197 1316 c45 -21 73 -52 73 -83 1 -25 2 -26 11 -10 24 41 -15 88
-81 101 l-35 7 32 -15z"/>
<path d="M386 1279 c-6 -18 -13 -269 -7 -263 3 2 10 30 16 61 12 61 29 78 40
41 22 -71 69 -168 82 -168 10 0 13 6 8 18 -4 9 -32 82 -62 162 -56 150 -69
174 -77 149z"/>
<path d="M920 1280 c11 -7 16 -38 21 -132 l5 -123 2 121 c2 118 -4 144 -32
144 -6 0 -4 -5 4 -10z"/>
<path d="M646 1206 c-30 -76 -35 -110 -7 -51 l19 40 1 -92 c1 -86 10 -115 25
-77 9 24 7 217 -3 232 -6 10 -16 -7 -35 -52z"/>
<path d="M1168 1265 c-7 -8 15 -85 24 -85 5 0 6 11 2 25 -5 21 -3 25 15 25 28
0 27 26 -1 34 -28 7 -33 7 -40 1z"/>
<path d="M1068 1254 c-5 -4 -8 -65 -8 -135 0 -103 3 -128 15 -133 8 -3 15 -13
15 -22 0 -14 -12 -16 -94 -12 -52 1 -98 0 -102 -4 -14 -14 190 -8 215 6 l24
14 -24 12 c-35 19 -39 28 -39 92 0 63 12 79 40 53 10 -9 38 -18 62 -21 36 -3
38 -2 13 4 -62 17 -99 61 -107 130 -2 13 -6 20 -10 16z"/>
<path d="M586 1224 c-4 -14 -5 -28 -3 -31 3 -2 8 8 11 23 4 14 5 28 3 31 -3 2
-8 -8 -11 -23z"/>
<path d="M1126 1182 c-10 -30 -7 -33 46 -38 l43 -5 -37 18 c-21 10 -39 24 -41
33 -2 10 -6 8 -11 -8z"/>
<path d="M2450 1155 c0 -8 9 -15 20 -15 11 0 20 7 20 15 0 8 -9 15 -20 15 -11
0 -20 -7 -20 -15z"/>
<path d="M1560 1091 c0 -17 8 -20 52 -23 60 -3 71 -20 38 -56 -28 -30 -40 -28
-40 8 0 25 -4 30 -25 30 -24 0 -25 -2 -25 -75 0 -73 1 -75 25 -75 20 0 25 5
25 25 0 18 9 28 35 41 43 20 65 49 65 86 0 38 -33 58 -97 58 -46 0 -53 -3 -53
-19z"/>
<path d="M1750 1005 l0 -106 57 3 c64 3 90 28 29 28 l-36 0 0 90 c0 89 0 90
-25 90 l-25 0 0 -105z"/>
<path d="M1961 1091 c-63 -34 -88 -118 -55 -187 22 -45 40 -38 37 15 l-2 41
40 0 c37 0 39 -2 39 -30 0 -23 4 -30 20 -30 18 0 20 7 20 75 0 73 -1 75 -25
75 -20 0 -25 -5 -25 -25 0 -21 -5 -25 -30 -25 -23 0 -30 5 -30 19 0 26 42 51
85 51 29 0 36 3 33 18 -5 24 -64 26 -107 3z"/>
<path d="M2116 1091 c-22 -24 -16 -44 29 -96 45 -51 45 -65 0 -65 -24 0 -35
-5 -35 -15 0 -12 13 -15 55 -15 50 0 55 2 61 26 7 26 -22 78 -53 97 -7 4 -13
17 -13 27 0 16 7 20 30 20 23 0 30 4 30 20 0 17 -7 20 -43 20 -31 0 -49 -6
-61 -19z"/>
<path d="M2250 1090 c0 -16 7 -20 30 -20 l30 0 0 -85 c0 -78 2 -85 20 -85 18
0 20 7 20 85 l0 85 31 0 c24 0 30 3 25 16 -3 9 -6 18 -6 20 0 2 -34 4 -75 4
-68 0 -75 -2 -75 -20z"/>
<path d="M2440 1005 l0 -105 25 0 25 0 0 105 0 105 -25 0 -25 0 0 -105z"/>
<path d="M2540 1005 l0 -105 25 0 c29 0 29 6 19 133 -6 66 -10 77 -25 77 -17
0 -19 -9 -19 -105z"/>
<path d="M2632 1068 c-27 -52 -27 -61 1 -118 15 -30 29 -46 45 -48 27 -4 28 7
2 55 -11 21 -20 45 -20 53 0 9 9 33 20 55 24 48 25 45 -3 45 -16 0 -28 -12
-45 -42z"/>
<path d="M583 1043 c-13 -31 -21 -58 -19 -60 5 -6 48 97 44 108 -2 5 -13 -17
-25 -48z"/>
<path d="M235 1070 c-4 -6 6 -10 24 -10 16 0 33 5 36 10 4 6 -6 10 -24 10 -16
0 -33 -4 -36 -10z"/>
<path d="M185 1010 c-15 -47 77 -91 125 -60 11 7 7 10 -18 10 -43 0 -68 14
-86 47 l-13 27 -8 -24z"/>
</g>
</svg>
